TITLE ""
FILE "P1Q_t_0220-0228.mp3" MP3
  TRACK 01 AUDIO
    TITLE "P1Q_t_0220-0228_01"
    INDEX 01 00:00:00
  TRACK 02 AUDIO
    TITLE "P1Q_t_0220-0228_02"
    INDEX 01 00:01:39
  TRACK 03 AUDIO
    TITLE "P1Q_t_0220-0228_03"
    INDEX 01 00:01:59
  TRACK 04 AUDIO
    TITLE "P1Q_t_0220-0228_04"
    INDEX 01 00:03:22
  TRACK 05 AUDIO
    TITLE "P1Q_t_0220-0228_05"
    INDEX 01 00:03:42
  TRACK 06 AUDIO
    TITLE "P1Q_t_0220-0228_06"
    INDEX 01 00:07:65
  TRACK 07 AUDIO
    TITLE "P1Q_t_0220-0228_07"
    INDEX 01 00:08:39
  TRACK 08 AUDIO
    TITLE "P1Q_t_0220-0228_08"
    INDEX 01 00:09:43
  TRACK 09 AUDIO
    TITLE "P1Q_t_0220-0228_09"
    INDEX 01 00:09:62
  TRACK 10 AUDIO
    TITLE "P1Q_t_0220-0228_10"
    INDEX 01 00:13:52
  TRACK 11 AUDIO
    TITLE "P1Q_t_0220-0228_11"
    INDEX 01 00:13:72
  TRACK 12 AUDIO
    TITLE "P1Q_t_0220-0228_12"
    INDEX 01 00:17:73
  TRACK 13 AUDIO
    TITLE "P1Q_t_0220-0228_13"
    INDEX 01 00:18:43
  TRACK 14 AUDIO
    TITLE "P1Q_t_0220-0228_14"
    INDEX 01 00:19:51
  TRACK 15 AUDIO
    TITLE "P1Q_t_0220-0228_15"
    INDEX 01 00:20:21
  TRACK 16 AUDIO
    TITLE "P1Q_t_0220-0228_16"
    INDEX 01 00:21:36
  TRACK 17 AUDIO
    TITLE "P1Q_t_0220-0228_17"
    INDEX 01 00:21:58
  TRACK 18 AUDIO
    TITLE "P1Q_t_0220-0228_18"
    INDEX 01 00:23:49
  TRACK 19 AUDIO
    TITLE "P1Q_t_0220-0228_19"
    INDEX 01 00:23:68
  TRACK 20 AUDIO
    TITLE "P1Q_t_0220-0228_20"
    INDEX 01 00:27:17
  TRACK 21 AUDIO
    TITLE "P1Q_t_0220-0228_21"
    INDEX 01 00:27:62
  TRACK 22 AUDIO
    TITLE "P1Q_t_0220-0228_22"
    INDEX 01 00:29:28
  TRACK 23 AUDIO
    TITLE "P1Q_t_0220-0228_23"
    INDEX 01 00:29:49
  TRACK 24 AUDIO
    TITLE "P1Q_t_0220-0228_24"
    INDEX 01 00:31:05
  TRACK 25 AUDIO
    TITLE "P1Q_t_0220-0228_25"
    INDEX 01 00:31:27
  TRACK 26 AUDIO
    TITLE "P1Q_t_0220-0228_26"
    INDEX 01 00:36:37
  TRACK 27 AUDIO
    TITLE "P1Q_t_0220-0228_27"
    INDEX 01 00:37:08
  TRACK 28 AUDIO
    TITLE "P1Q_t_0220-0228_28"
    INDEX 01 00:38:44
  TRACK 29 AUDIO
    TITLE "P1Q_t_0220-0228_29"
    INDEX 01 00:38:66
  TRACK 30 AUDIO
    TITLE "P1Q_t_0220-0228_30"
    INDEX 01 00:41:07
  TRACK 31 AUDIO
    TITLE "P1Q_t_0220-0228_31"
    INDEX 01 00:41:25
  TRACK 32 AUDIO
    TITLE "P1Q_t_0220-0228_32"
    INDEX 01 00:46:24
  TRACK 33 AUDIO
    TITLE "P1Q_t_0220-0228_33"
    INDEX 01 00:46:71
  TRACK 34 AUDIO
    TITLE "P1Q_t_0220-0228_34"
    INDEX 01 00:48:11
  TRACK 35 AUDIO
    TITLE "P1Q_t_0220-0228_35"
    INDEX 01 00:48:33
  TRACK 36 AUDIO
    TITLE "P1Q_t_0220-0228_36"
    INDEX 01 00:51:25
  TRACK 37 AUDIO
    TITLE "P1Q_t_0220-0228_37"
    INDEX 01 00:51:45
  TRACK 38 AUDIO
    TITLE "P1Q_t_0220-0228_38"
    INDEX 01 00:57:40
  TRACK 39 AUDIO
    TITLE "P1Q_t_0220-0228_39"
    INDEX 01 00:58:10
  TRACK 40 AUDIO
    TITLE "P1Q_t_0220-0228_40"
    INDEX 01 00:59:31
  TRACK 41 AUDIO
    TITLE "P1Q_t_0220-0228_41"
    INDEX 01 00:59:52
  TRACK 42 AUDIO
    TITLE "P1Q_t_0220-0228_42"
    INDEX 01 01:03:62
  TRACK 43 AUDIO
    TITLE "P1Q_t_0220-0228_43"
    INDEX 01 01:04:08
  TRACK 44 AUDIO
    TITLE "P1Q_t_0220-0228_44"
    INDEX 01 01:09:43
  TRACK 45 AUDIO
    TITLE "P1Q_t_0220-0228_45"
    INDEX 01 01:10:15
  TRACK 46 AUDIO
    TITLE "P1Q_t_0220-0228_46"
    INDEX 01 01:11:42
  TRACK 47 AUDIO
    TITLE "P1Q_t_0220-0228_47"
    INDEX 01 01:11:63
  TRACK 48 AUDIO
    TITLE "P1Q_t_0220-0228_48"
    INDEX 01 01:15:02
  TRACK 49 AUDIO
    TITLE "P1Q_t_0220-0228_49"
    INDEX 01 01:15:24
  TRACK 50 AUDIO
    TITLE "P1Q_t_0220-0228_50"
    INDEX 01 01:22:30
  TRACK 51 AUDIO
    TITLE "P1Q_t_0220-0228_51"
    INDEX 01 01:23:00
  TRACK 52 AUDIO
    TITLE "P1Q_t_0220-0228_52"
    INDEX 01 01:24:23
  TRACK 53 AUDIO
    TITLE "P1Q_t_0220-0228_53"
    INDEX 01 01:24:44
  TRACK 54 AUDIO
    TITLE "P1Q_t_0220-0228_54"
    INDEX 01 01:25:54
  TRACK 55 AUDIO
    TITLE "P1Q_t_0220-0228_55"
    INDEX 01 01:25:71
  TRACK 56 AUDIO
    TITLE "P1Q_t_0220-0228_56"
    INDEX 01 01:30:31
